<svg xmlns="http://www.w3.org/2000/svg" class="exit-fullscreen-icon" height="100%" viewBox="0 0 36 36" width="100%">
    <g class="fullscreen-icon-corner-2">        
        <path d="m 14,14 -4,0 0,2 6,0 0,-6 -2,0 0,4 0,0 z" fill="#FFFFFF"/>    
    </g>    
    <g class="fullscreen-icon-corner-3">        
        <path d="m 22,14 0,-4 -2,0 0,6 6,0 0,-2 -4,0 0,0 z" fill="#FFFFFF"/>    
    </g>
    <g class="fullscreen-icon-corner-0">        
        <path d="m 20,26 2,0 0,-4 4,0 0,-2 -6,0 0,6 0,0 z" fill="#FFFFFF"/>
    </g>    
    <g class="fullscreen-icon-corner-1">        
        <path d="m 10,22 4,0 0,4 2,0 0,-6 -6,0 0,2 0,0 z" fill="#FFFFFF"/>    
    </g>    
</svg>